<?xml version="1.0" encoding="utf-8" ?>
<svg baseProfile="tiny" height="1024" version="1.2" viewBox="0 0 1024 1024" width="1024" xmlns="http://www.w3.org/2000/svg" xmlns:ev="http://www.w3.org/2001/xml-events" xmlns:xlink="http://www.w3.org/1999/xlink"><defs /><path d="M 412,671 Z" fill="#8B5CF6" /><path d="M 350,664 Z" fill="#8B5CF6" /><path d="M 666,644 Z" fill="#8B5CF6" /><path d="M 280,639 Z" fill="white"/><path d="M 410,638 Z" fill="#8B5CF6" /><path d="M 519,634 Z" fill="#8B5CF6" /><path d="M 502,634 Z" fill="#8B5CF6" /><path d="M 522,623 Z" fill="#8B5CF6" /><path d="M 279,623 Z" fill="#8B5CF6" /><path d="M 527,620 L 526,621 Z" fill="#8B5CF6" /><path d="M 569,605 Z" fill="#8B5CF6" /><path d="M 510,603 Z" fill="#8B5CF6" /><path d="M 371,596 Z" fill="#8B5CF6" /><path d="M 557,584 Z" fill="#8B5CF6" /><path d="M 602,573 Z" fill="#8B5CF6" /><path d="M 585,565 Z" fill="#8B5CF6" /><path d="M 587,564 Z" fill="#8B5CF6" /><path d="M 591,561 Z" fill="#8B5CF6" /><path d="M 599,555 Z" fill="#8B5CF6" /><path d="M 735,549 L 732,552 L 732,553 L 713,572 L 712,572 L 707,577 L 706,577 L 703,580 L 702,580 L 700,582 L 699,582 L 698,583 L 697,583 L 695,585 L 694,585 L 693,586 L 692,586 L 690,588 L 689,588 L 688,589 L 687,589 L 686,590 L 685,590 L 684,591 L 683,591 L 682,592 L 681,592 L 680,593 L 679,593 L 678,594 L 676,594 L 675,595 L 674,595 L 673,596 L 672,596 L 671,597 L 669,597 L 668,598 L 666,598 L 665,599 L 664,599 L 663,600 L 660,600 L 659,601 L 657,601 L 656,602 L 654,602 L 653,603 L 650,603 L 649,604 L 645,604 L 644,605 L 641,605 L 640,606 L 635,606 L 634,607 L 628,607 L 627,608 L 619,608 L 618,609 L 593,609 L 592,608 L 582,608 L 581,607 L 576,607 L 575,606 L 572,606 L 571,607 L 570,607 L 569,608 L 568,608 L 566,610 L 565,610 L 564,611 L 563,611 L 562,612 L 561,612 L 559,614 L 558,614 L 557,615 L 556,615 L 554,617 L 553,617 L 552,618 L 551,618 L 549,620 L 548,620 L 547,621 L 546,621 L 544,623 L 543,623 L 542,624 L 541,624 L 540,625 L 539,625 L 537,627 L 536,627 L 535,628 L 534,628 L 533,629 L 532,629 L 530,631 L 529,631 L 528,632 L 527,632 L 526,633 L 525,633 L 524,634 L 523,634 L 521,636 L 520,636 L 519,637 L 518,637 L 517,638 L 516,638 L 515,639 L 514,639 L 513,640 L 512,640 L 511,641 L 510,641 L 509,642 L 508,642 L 506,644 L 505,644 L 504,645 L 503,645 L 502,646 L 501,646 L 500,647 L 499,647 L 498,648 L 497,648 L 496,649 L 495,649 L 494,650 L 493,650 L 492,651 L 491,651 L 490,652 L 489,652 L 488,653 L 486,653 L 485,654 L 484,654 L 483,655 L 482,655 L 481,656 L 480,656 L 479,657 L 478,657 L 477,658 L 476,658 L 475,659 L 473,659 L 472,660 L 471,660 L 470,661 L 469,661 L 468,662 L 466,662 L 465,663 L 464,663 L 463,664 L 461,664 L 460,665 L 458,665 L 459,665 L 460,666 L 462,666 L 463,667 L 464,667 L 465,668 L 467,668 L 468,669 L 469,669 L 470,670 L 472,670 L 473,671 L 475,671 L 476,672 L 478,672 L 479,673 L 481,673 L 482,674 L 485,674 L 486,675 L 488,675 L 489,676 L 492,676 L 493,677 L 496,677 L 497,678 L 500,678 L 501,679 L 505,679 L 506,680 L 510,680 L 511,681 L 517,681 L 518,682 L 525,682 L 526,683 L 561,683 L 562,682 L 569,682 L 570,681 L 575,681 L 576,680 L 581,680 L 582,679 L 586,679 L 587,678 L 589,678 L 590,677 L 593,677 L 594,676 L 597,676 L 598,675 L 600,675 L 601,674 L 603,674 L 604,673 L 606,673 L 607,672 L 609,672 L 610,671 L 612,671 L 613,670 L 614,670 L 615,669 L 617,669 L 618,668 L 619,668 L 620,667 L 622,667 L 623,666 L 624,666 L 625,665 L 626,665 L 627,664 L 628,664 L 629,663 L 630,663 L 631,662 L 632,662 L 633,661 L 634,661 L 635,660 L 636,660 L 637,659 L 638,659 L 639,658 L 640,658 L 641,657 L 642,657 L 644,655 L 645,655 L 646,654 L 647,654 L 649,652 L 650,652 L 652,650 L 653,650 L 655,648 L 656,648 L 658,646 L 659,646 L 661,644 L 662,644 L 665,641 L 666,641 L 669,638 L 670,638 L 675,633 L 676,633 L 699,610 L 699,609 L 703,605 L 703,604 L 707,600 L 707,599 L 709,597 L 709,596 L 711,594 L 711,593 L 713,591 L 713,590 L 715,588 L 715,587 L 717,585 L 717,584 L 719,582 L 719,581 L 720,580 L 720,579 L 721,578 L 721,577 L 722,576 L 722,575 L 724,573 L 724,572 L 725,571 L 725,570 L 726,569 L 726,568 L 727,567 L 727,566 L 728,565 L 728,564 L 729,563 L 729,562 L 730,561 L 730,559 L 731,558 L 731,557 L 732,556 L 732,555 L 733,554 L 733,553 L 734,552 L 734,551 L 735,550 Z" fill="#8B5CF6" /><path d="M 634,549 Z" fill="#8B5CF6" /><path d="M 479,545 Z" fill="#8B5CF6" /><path d="M 619,540 Z" fill="#8B5CF6" /><path d="M 658,505 Z" fill="#8B5CF6" /><path d="M 675,488 Z" fill="#8B5CF6" /><path d="M 712,443 Z" fill="#8B5CF6" /><path d="M 728,408 Z" fill="#8B5CF6" /><path d="M 344,408 Z" fill="#8B5CF6" /><path d="M 741,406 L 740,407 L 739,407 L 738,408 L 737,408 L 736,409 L 734,409 L 733,410 L 731,410 L 730,411 L 728,411 L 728,413 L 727,414 L 727,417 L 726,418 L 726,420 L 725,421 L 725,422 L 724,423 L 724,425 L 723,426 L 723,427 L 722,428 L 722,429 L 721,430 L 721,432 L 720,433 L 720,434 L 719,435 L 719,436 L 718,437 L 718,438 L 717,439 L 717,440 L 715,442 L 715,443 L 714,444 L 714,445 L 713,446 L 713,447 L 711,449 L 711,450 L 710,451 L 710,452 L 708,454 L 708,455 L 706,457 L 706,458 L 703,461 L 703,462 L 701,464 L 701,465 L 695,471 L 695,472 L 687,480 L 687,481 L 663,505 L 662,505 L 650,517 L 649,517 L 642,524 L 641,524 L 636,529 L 635,529 L 630,534 L 629,534 L 625,538 L 624,538 L 620,542 L 619,542 L 615,546 L 614,546 L 611,549 L 610,549 L 607,552 L 606,552 L 603,555 L 602,555 L 599,558 L 598,558 L 595,561 L 594,561 L 592,563 L 591,563 L 588,566 L 587,566 L 584,569 L 583,569 L 581,571 L 580,571 L 578,573 L 577,573 L 574,576 L 573,576 L 571,578 L 570,578 L 568,580 L 567,580 L 565,582 L 564,582 L 562,584 L 561,584 L 559,586 L 558,586 L 556,588 L 555,588 L 553,590 L 552,590 L 550,592 L 549,592 L 548,593 L 547,593 L 545,595 L 544,595 L 542,597 L 541,597 L 540,598 L 539,598 L 537,600 L 536,600 L 535,601 L 534,601 L 532,603 L 531,603 L 530,604 L 529,604 L 527,606 L 526,606 L 525,607 L 524,607 L 523,608 L 522,608 L 520,610 L 519,610 L 518,611 L 517,611 L 516,612 L 515,612 L 514,613 L 513,613 L 511,615 L 510,615 L 509,616 L 508,616 L 507,617 L 506,617 L 505,618 L 504,618 L 503,619 L 502,619 L 501,620 L 500,620 L 499,621 L 498,621 L 497,622 L 496,622 L 495,623 L 494,623 L 493,624 L 492,624 L 491,625 L 490,625 L 489,626 L 488,626 L 487,627 L 486,627 L 485,628 L 484,628 L 483,629 L 482,629 L 481,630 L 480,630 L 479,631 L 478,631 L 477,632 L 476,632 L 475,633 L 473,633 L 472,634 L 471,634 L 470,635 L 469,635 L 468,636 L 467,636 L 466,637 L 464,637 L 463,638 L 462,638 L 461,639 L 460,639 L 459,640 L 457,640 L 456,641 L 455,641 L 454,642 L 453,642 L 452,643 L 450,643 L 449,644 L 448,644 L 447,645 L 445,645 L 444,646 L 442,646 L 441,647 L 440,647 L 439,648 L 437,648 L 436,649 L 435,649 L 434,650 L 432,650 L 431,651 L 429,651 L 428,652 L 426,652 L 425,653 L 423,653 L 422,654 L 420,654 L 419,655 L 417,655 L 416,656 L 413,656 L 412,657 L 410,657 L 409,658 L 406,658 L 405,659 L 403,659 L 402,660 L 399,660 L 398,661 L 394,661 L 393,662 L 389,662 L 388,663 L 384,663 L 383,664 L 377,664 L 376,665 L 369,665 L 368,666 L 338,666 L 337,665 L 331,665 L 330,664 L 327,664 L 326,663 L 323,663 L 322,662 L 320,662 L 319,661 L 318,661 L 317,660 L 316,660 L 315,659 L 314,659 L 313,658 L 312,658 L 311,657 L 310,657 L 306,653 L 305,653 L 302,650 L 302,649 L 299,646 L 299,645 L 298,644 L 298,643 L 297,642 L 297,641 L 296,640 L 296,638 L 295,637 L 295,634 L 294,633 L 294,617 L 295,616 L 295,612 L 296,611 L 296,608 L 297,607 L 297,604 L 298,603 L 298,601 L 299,600 L 299,598 L 300,597 L 300,596 L 301,595 L 301,593 L 302,592 L 302,591 L 303,590 L 303,589 L 304,588 L 304,586 L 305,585 L 305,584 L 306,583 L 306,582 L 307,581 L 307,580 L 308,579 L 308,578 L 309,577 L 309,576 L 311,574 L 311,573 L 312,572 L 312,571 L 314,569 L 314,568 L 315,567 L 315,566 L 317,564 L 317,563 L 319,561 L 319,560 L 321,558 L 321,557 L 324,554 L 324,553 L 329,548 L 329,547 L 332,544 L 332,542 L 331,541 L 331,540 L 330,539 L 330,537 L 329,536 L 329,535 L 328,534 L 328,533 L 322,539 L 322,540 L 317,545 L 317,546 L 314,549 L 314,550 L 311,553 L 311,554 L 308,557 L 308,558 L 306,560 L 306,561 L 304,563 L 304,564 L 303,565 L 303,566 L 301,568 L 301,569 L 300,570 L 300,571 L 298,573 L 298,574 L 297,575 L 297,576 L 296,577 L 296,578 L 295,579 L 295,580 L 294,581 L 294,582 L 293,583 L 293,584 L 292,585 L 292,587 L 291,588 L 291,589 L 290,590 L 290,591 L 289,592 L 289,594 L 288,595 L 288,597 L 287,598 L 287,600 L 286,601 L 286,603 L 285,604 L 285,606 L 284,607 L 284,610 L 283,611 L 283,614 L 282,615 L 282,622 L 281,623 L 281,635 L 282,636 L 282,640 L 283,641 L 283,643 L 284,644 L 284,646 L 285,647 L 285,648 L 286,649 L 286,650 L 287,651 L 287,652 L 288,653 L 288,654 L 290,656 L 290,657 L 298,665 L 299,665 L 302,668 L 303,668 L 304,669 L 305,669 L 306,670 L 307,670 L 308,671 L 309,671 L 310,672 L 311,672 L 312,673 L 314,673 L 315,674 L 317,674 L 318,675 L 321,675 L 322,676 L 325,676 L 326,677 L 331,677 L 332,678 L 341,678 L 342,679 L 356,679 L 357,678 L 369,678 L 370,677 L 376,677 L 377,676 L 383,676 L 384,675 L 388,675 L 389,674 L 393,674 L 394,673 L 397,673 L 398,672 L 401,672 L 402,671 L 404,671 L 405,670 L 408,670 L 409,669 L 411,669 L 412,668 L 414,668 L 415,667 L 418,667 L 419,666 L 421,666 L 422,665 L 424,665 L 425,664 L 427,664 L 428,663 L 430,663 L 431,662 L 432,662 L 433,661 L 435,661 L 436,660 L 438,660 L 439,659 L 440,659 L 441,658 L 443,658 L 444,657 L 445,657 L 446,656 L 448,656 L 449,655 L 450,655 L 451,654 L 453,654 L 454,653 L 455,653 L 456,652 L 457,652 L 458,651 L 460,651 L 461,650 L 462,650 L 463,649 L 465,649 L 466,648 L 467,648 L 468,647 L 469,647 L 470,646 L 471,646 L 472,645 L 474,645 L 475,644 L 476,644 L 477,643 L 478,643 L 479,642 L 480,642 L 481,641 L 482,641 L 483,640 L 484,640 L 485,639 L 486,639 L 487,638 L 488,638 L 489,637 L 491,637 L 492,636 L 493,636 L 494,635 L 495,635 L 496,634 L 497,634 L 498,633 L 499,633 L 500,632 L 501,632 L 502,631 L 503,631 L 505,629 L 507,629 L 508,628 L 509,628 L 511,626 L 512,626 L 513,625 L 514,625 L 515,624 L 516,624 L 517,623 L 518,623 L 519,622 L 520,622 L 522,620 L 523,620 L 524,619 L 525,619 L 526,618 L 527,618 L 528,617 L 529,617 L 531,615 L 532,615 L 533,614 L 534,614 L 535,613 L 536,613 L 538,611 L 539,611 L 540,610 L 541,610 L 542,609 L 543,609 L 545,607 L 546,607 L 547,606 L 548,606 L 550,604 L 551,604 L 552,603 L 553,603 L 555,601 L 556,601 L 557,600 L 558,600 L 560,598 L 561,598 L 563,596 L 564,596 L 565,595 L 566,595 L 568,593 L 569,593 L 571,591 L 572,591 L 574,589 L 575,589 L 577,587 L 578,587 L 580,585 L 581,585 L 583,583 L 584,583 L 586,581 L 587,581 L 589,579 L 590,579 L 592,577 L 593,577 L 595,575 L 596,575 L 599,572 L 600,572 L 602,570 L 603,570 L 606,567 L 607,567 L 609,565 L 610,565 L 613,562 L 614,562 L 616,560 L 617,560 L 621,556 L 622,556 L 625,553 L 626,553 L 629,550 L 630,550 L 634,546 L 635,546 L 639,542 L 640,542 L 644,538 L 645,538 L 649,534 L 650,534 L 657,527 L 658,527 L 665,520 L 666,520 L 699,487 L 699,486 L 704,481 L 704,480 L 709,475 L 709,474 L 712,471 L 712,470 L 715,467 L 715,466 L 717,464 L 717,463 L 719,461 L 719,460 L 721,458 L 721,457 L 723,455 L 723,454 L 724,453 L 724,452 L 725,451 L 725,450 L 727,448 L 727,447 L 728,446 L 728,445 L 729,444 L 729,443 L 730,442 L 730,441 L 731,440 L 731,439 L 732,438 L 732,437 L 733,436 L 733,434 L 734,433 L 734,432 L 735,431 L 735,429 L 736,428 L 736,427 L 737,426 L 737,424 L 738,423 L 738,421 L 739,420 L 739,418 L 740,417 L 740,414 L 741,413 L 741,411 L 742,410 L 742,407 L 743,406 Z" fill="#8B5CF6" /><path d="M 345,404 Z" fill="#8B5CF6" /><path d="M 575,377 Z" fill="#8B5CF6" /><path d="M 655,375 Z" fill="#8B5CF6" /><path d="M 754,374 Z" fill="#8B5CF6" /><path d="M 649,374 Z" fill="#8B5CF6" /><path d="M 678,354 Z" fill="#8B5CF6" /><path d="M 671,354 L 670,355 L 665,355 L 664,356 L 659,356 L 658,357 L 653,357 L 652,358 L 648,358 L 647,359 L 644,359 L 643,360 L 639,360 L 638,361 L 635,361 L 634,362 L 630,362 L 629,363 L 626,363 L 625,364 L 623,364 L 622,365 L 619,365 L 618,366 L 615,366 L 614,367 L 612,367 L 611,368 L 608,368 L 607,369 L 605,369 L 604,370 L 602,370 L 601,371 L 599,371 L 598,372 L 595,372 L 594,373 L 592,373 L 591,374 L 589,374 L 588,375 L 586,375 L 585,376 L 584,376 L 583,377 L 581,377 L 580,378 L 578,378 L 577,379 L 575,379 L 574,380 L 573,380 L 572,381 L 570,381 L 569,382 L 568,382 L 567,383 L 565,383 L 564,384 L 562,384 L 561,385 L 560,385 L 559,386 L 557,386 L 556,387 L 555,387 L 554,388 L 553,388 L 552,389 L 550,389 L 549,390 L 548,390 L 547,391 L 545,391 L 544,392 L 543,392 L 542,393 L 541,393 L 540,394 L 539,394 L 538,395 L 536,395 L 535,396 L 534,396 L 533,397 L 532,397 L 531,398 L 530,398 L 529,399 L 528,399 L 527,400 L 525,400 L 524,401 L 523,401 L 522,402 L 521,402 L 520,403 L 519,403 L 518,404 L 517,404 L 516,405 L 515,405 L 514,406 L 513,406 L 512,407 L 511,407 L 510,408 L 509,408 L 508,409 L 507,409 L 505,411 L 504,411 L 503,412 L 502,412 L 501,413 L 500,413 L 499,414 L 498,414 L 497,415 L 496,415 L 495,416 L 494,416 L 493,417 L 492,417 L 491,418 L 490,418 L 488,420 L 487,420 L 486,421 L 485,421 L 484,422 L 483,422 L 482,423 L 481,423 L 479,425 L 478,425 L 477,426 L 476,426 L 474,428 L 473,428 L 472,429 L 471,429 L 470,430 L 469,430 L 467,432 L 466,432 L 464,434 L 463,434 L 462,435 L 461,435 L 459,437 L 458,437 L 457,438 L 457,443 L 456,444 L 456,451 L 455,452 L 456,452 L 457,451 L 458,451 L 460,449 L 461,449 L 463,447 L 464,447 L 466,445 L 467,445 L 468,444 L 469,444 L 471,442 L 472,442 L 473,441 L 474,441 L 476,439 L 477,439 L 478,438 L 479,438 L 480,437 L 481,437 L 483,435 L 484,435 L 485,434 L 486,434 L 487,433 L 488,433 L 489,432 L 490,432 L 491,431 L 492,431 L 494,429 L 495,429 L 496,428 L 497,428 L 498,427 L 499,427 L 500,426 L 501,426 L 502,425 L 503,425 L 504,424 L 505,424 L 506,423 L 507,423 L 508,422 L 509,422 L 510,421 L 511,421 L 512,420 L 513,420 L 514,419 L 515,419 L 516,418 L 517,418 L 518,417 L 519,417 L 520,416 L 521,416 L 522,415 L 523,415 L 524,414 L 525,414 L 526,413 L 528,413 L 529,412 L 530,412 L 531,411 L 532,411 L 533,410 L 534,410 L 535,409 L 537,409 L 538,408 L 539,408 L 540,407 L 541,407 L 542,406 L 544,406 L 545,405 L 546,405 L 547,404 L 548,404 L 549,403 L 551,403 L 552,402 L 553,402 L 554,401 L 556,401 L 557,400 L 559,400 L 560,399 L 561,399 L 562,398 L 564,398 L 565,397 L 566,397 L 567,396 L 569,396 L 570,395 L 571,395 L 572,394 L 574,394 L 575,393 L 577,393 L 578,392 L 579,392 L 580,391 L 582,391 L 583,390 L 585,390 L 586,389 L 588,389 L 589,388 L 591,388 L 592,387 L 594,387 L 595,386 L 597,386 L 598,385 L 600,385 L 601,384 L 603,384 L 604,383 L 606,383 L 607,382 L 610,382 L 611,381 L 613,381 L 614,380 L 617,380 L 618,379 L 620,379 L 621,378 L 624,378 L 625,377 L 627,377 L 628,376 L 631,376 L 632,375 L 635,375 L 636,374 L 640,374 L 641,373 L 645,373 L 646,372 L 649,372 L 650,371 L 654,371 L 655,370 L 659,370 L 660,369 L 665,369 L 666,368 L 673,368 L 674,367 L 676,367 L 675,366 L 675,358 L 676,357 L 676,354 Z" fill="#8B5CF6" /><path d="M 485,342 Z" fill="#8B5CF6" /><path d="M 743,337 Z" fill="#8B5CF6" /><path d="M 732,331 Z" fill="#8B5CF6" /><path d="M 714,331 L 713,332 L 710,332 L 709,333 L 708,333 L 707,334 L 705,334 L 703,336 L 702,336 L 700,338 L 699,338 L 693,344 L 693,345 L 691,347 L 691,348 L 690,349 L 690,350 L 689,351 L 689,353 L 688,354 L 688,356 L 687,357 L 687,361 L 686,362 L 686,367 L 687,368 L 687,373 L 688,374 L 688,377 L 689,378 L 689,379 L 690,380 L 690,381 L 692,383 L 692,384 L 694,386 L 694,387 L 697,390 L 698,390 L 701,393 L 702,393 L 703,394 L 704,394 L 705,395 L 706,395 L 707,396 L 709,396 L 710,397 L 712,397 L 713,398 L 724,398 L 725,397 L 728,397 L 729,396 L 731,396 L 732,395 L 733,395 L 734,394 L 736,394 L 738,392 L 739,392 L 746,385 L 746,384 L 748,382 L 748,381 L 749,380 L 749,379 L 750,378 L 750,377 L 751,376 L 751,374 L 752,373 L 752,370 L 753,369 L 753,360 L 752,359 L 752,355 L 751,354 L 751,352 L 750,351 L 750,350 L 749,349 L 749,348 L 748,347 L 748,346 L 744,342 L 744,341 L 742,339 L 741,339 L 738,336 L 737,336 L 736,335 L 735,335 L 734,334 L 733,334 L 732,333 L 730,333 L 729,332 L 726,332 L 725,331 Z" fill="#8B5CF6" /><path d="M 568,286 Z" fill="#8B5CF6" /><path d="M 518,279 L 517,280 L 508,280 L 507,281 L 501,281 L 500,282 L 495,282 L 494,283 L 490,283 L 489,284 L 485,284 L 484,285 L 482,285 L 481,286 L 478,286 L 477,287 L 474,287 L 473,288 L 471,288 L 470,289 L 468,289 L 467,290 L 465,290 L 464,291 L 462,291 L 461,292 L 460,292 L 459,293 L 457,293 L 456,294 L 455,294 L 454,295 L 452,295 L 451,296 L 450,296 L 449,297 L 448,297 L 447,298 L 445,298 L 444,299 L 443,299 L 442,300 L 441,300 L 439,302 L 438,302 L 437,303 L 436,303 L 435,304 L 434,304 L 433,305 L 432,305 L 430,307 L 429,307 L 428,308 L 427,308 L 425,310 L 424,310 L 423,311 L 422,311 L 420,313 L 419,313 L 417,315 L 416,315 L 413,318 L 412,318 L 409,321 L 408,321 L 404,325 L 403,325 L 382,346 L 382,347 L 377,352 L 377,353 L 374,356 L 374,357 L 371,360 L 371,361 L 369,363 L 369,364 L 367,366 L 367,367 L 365,369 L 365,370 L 364,371 L 364,372 L 362,374 L 362,375 L 361,376 L 361,377 L 360,378 L 360,379 L 358,381 L 358,382 L 357,383 L 357,384 L 356,385 L 356,386 L 355,387 L 355,388 L 354,389 L 354,390 L 353,391 L 353,392 L 352,393 L 352,395 L 351,396 L 351,397 L 350,398 L 350,400 L 349,401 L 349,402 L 348,403 L 348,405 L 347,406 L 347,407 L 346,408 L 346,410 L 345,411 L 345,413 L 344,414 L 344,416 L 343,417 L 343,419 L 342,420 L 342,423 L 341,424 L 341,427 L 340,428 L 340,431 L 339,432 L 339,435 L 338,436 L 338,441 L 337,442 L 337,446 L 336,447 L 336,455 L 335,456 L 335,494 L 336,495 L 336,504 L 337,505 L 337,511 L 338,512 L 338,516 L 339,517 L 339,521 L 340,522 L 340,525 L 341,526 L 341,529 L 342,530 L 342,533 L 343,534 L 343,536 L 344,537 L 344,539 L 345,540 L 345,542 L 346,543 L 346,545 L 347,546 L 347,547 L 348,548 L 348,550 L 349,551 L 349,553 L 350,554 L 350,555 L 351,556 L 351,557 L 352,558 L 352,559 L 353,560 L 353,561 L 354,562 L 354,564 L 355,565 L 355,566 L 356,567 L 356,568 L 357,569 L 357,570 L 359,572 L 359,573 L 360,574 L 360,575 L 361,576 L 361,577 L 362,578 L 362,579 L 364,581 L 364,582 L 366,584 L 366,585 L 367,586 L 367,587 L 369,589 L 369,590 L 371,592 L 371,593 L 374,596 L 374,597 L 378,601 L 378,602 L 382,606 L 382,607 L 388,613 L 388,614 L 391,617 L 392,617 L 393,618 L 393,619 L 394,619 L 395,620 L 395,621 L 396,622 L 397,622 L 398,623 L 398,624 L 399,624 L 405,630 L 406,630 L 410,634 L 411,634 L 415,638 L 416,638 L 419,641 L 422,641 L 423,640 L 425,640 L 426,639 L 428,639 L 429,638 L 431,638 L 432,637 L 433,637 L 434,636 L 436,636 L 437,635 L 439,635 L 440,634 L 442,634 L 443,633 L 444,633 L 445,632 L 446,632 L 447,631 L 449,631 L 450,630 L 451,630 L 452,629 L 454,629 L 455,628 L 456,628 L 457,627 L 458,627 L 459,626 L 461,626 L 462,625 L 463,625 L 464,624 L 465,624 L 466,623 L 467,623 L 468,622 L 469,622 L 470,621 L 471,621 L 472,620 L 474,620 L 475,619 L 476,619 L 477,618 L 478,618 L 479,617 L 480,617 L 481,616 L 482,616 L 483,615 L 484,615 L 485,614 L 486,614 L 487,613 L 488,613 L 489,612 L 490,612 L 492,610 L 493,610 L 494,609 L 495,609 L 496,608 L 497,608 L 498,607 L 499,607 L 500,606 L 501,606 L 503,604 L 504,604 L 505,603 L 506,603 L 507,602 L 508,602 L 509,601 L 510,601 L 512,599 L 513,599 L 514,598 L 515,598 L 516,597 L 517,597 L 519,595 L 520,595 L 521,594 L 522,594 L 523,593 L 524,593 L 525,592 L 526,592 L 526,591 L 525,590 L 524,590 L 522,588 L 521,588 L 519,586 L 518,586 L 515,583 L 514,583 L 511,580 L 510,580 L 506,576 L 505,576 L 499,570 L 498,570 L 486,558 L 486,557 L 479,550 L 479,549 L 476,546 L 476,545 L 473,542 L 473,541 L 470,538 L 470,537 L 469,536 L 469,535 L 467,533 L 467,532 L 465,530 L 465,529 L 464,528 L 464,527 L 462,525 L 462,524 L 461,523 L 461,522 L 460,521 L 460,520 L 459,519 L 459,518 L 458,517 L 458,516 L 457,515 L 457,514 L 456,513 L 456,511 L 455,510 L 455,509 L 454,508 L 454,507 L 453,506 L 453,505 L 452,504 L 452,502 L 451,501 L 451,499 L 450,498 L 450,496 L 449,495 L 449,493 L 448,492 L 448,490 L 447,489 L 447,486 L 446,485 L 446,482 L 445,481 L 445,477 L 444,476 L 444,469 L 443,468 L 443,461 L 442,460 L 442,440 L 443,439 L 443,430 L 444,429 L 444,423 L 445,422 L 445,417 L 446,416 L 446,413 L 447,412 L 447,409 L 448,408 L 448,406 L 449,405 L 449,403 L 450,402 L 450,399 L 451,398 L 451,397 L 452,396 L 452,394 L 453,393 L 453,391 L 454,390 L 454,389 L 455,388 L 455,386 L 456,385 L 456,384 L 457,383 L 457,382 L 458,381 L 458,380 L 459,379 L 459,378 L 460,377 L 460,376 L 461,375 L 461,374 L 462,373 L 462,372 L 463,371 L 463,370 L 464,369 L 464,368 L 465,367 L 465,366 L 467,364 L 467,363 L 469,361 L 469,360 L 470,359 L 470,358 L 472,356 L 472,355 L 475,352 L 475,351 L 477,349 L 477,348 L 480,345 L 480,344 L 484,340 L 484,339 L 492,331 L 492,330 L 497,325 L 498,325 L 507,316 L 508,316 L 512,312 L 513,312 L 516,309 L 517,309 L 520,306 L 521,306 L 523,304 L 524,304 L 525,303 L 526,303 L 528,301 L 529,301 L 531,299 L 532,299 L 533,298 L 534,298 L 535,297 L 536,297 L 537,296 L 538,296 L 539,295 L 540,295 L 541,294 L 542,294 L 543,293 L 544,293 L 545,292 L 546,292 L 547,291 L 549,291 L 550,290 L 551,290 L 552,289 L 553,289 L 554,288 L 556,288 L 557,287 L 559,287 L 560,286 L 562,286 L 563,285 L 565,285 L 566,284 L 568,284 L 569,283 L 573,283 L 574,282 L 576,282 L 575,281 L 566,281 L 565,280 L 555,280 L 554,279 Z" fill="#8B5CF6" /><path d="M 555,277 Z" fill="#8B5CF6" /></svg>